<svg xmlns="http://www.w3.org/2000/svg" viewBox="-71.791 155.194 749.563 184.069"><defs><linearGradient id="gradient-0" x1="333.852" x2="333.852" y1="130.641" y2="297.219" gradientUnits="userSpaceOnUse"><stop offset="0" style="stop-color:#557088"/><stop offset="1" style="stop-color:rgba(77,102,124,.8)"/></linearGradient><filter id="outline-filter-0" width="1000%" height="1000%" x="-500%" y="-500%"><feMorphology in="SourceAlpha" operator="dilate" radius="2" result="dilated"/><feFlood flood-color="rgba(255,255,255,1)" result="flood"/><feComposite in="flood" in2="dilated" operator="in" result="outline"/><feMerge><feMergeNode in="outline"/><feMergeNode in="SourceGraphic"/></feMerge></filter></defs><g style="opacity:.58"><path stroke-width="0" d="M 364.044 207.651 C 368.473 207.123 380.131 206.85 384.024 207.651 C 384.791 207.809 385.395 207.963 385.896 208.15 C 385.456 208.046 385.01 208.001 384.533 207.962 C 383.885 207.909 383.177 207.882 382.472 207.962 C 382.413 207.969 382.353 207.976 382.292 207.983 C 382.559 208.027 382.816 208.078 383.082 208.161 C 383.371 208.207 383.658 208.276 383.932 208.376 C 384.877 208.723 386.026 209.435 386.748 210.204 C 387.443 210.945 387.949 211.909 388.23 212.872 C 388.515 213.85 388.515 214.948 388.428 216.034 C 388.335 217.184 388.104 218.57 387.637 219.592 C 387.523 219.841 387.391 220.084 387.246 220.319 C 387.462 220.207 387.68 220.086 387.887 219.962 C 387.523 223.215 389.037 230.428 388.238 234.031 C 387.6 236.913 386.329 239.567 384.648 240.743 C 383.156 241.787 381.453 241.275 379.029 241.367 C 375.571 241.499 368.544 240.809 365.293 241.055 C 363.162 241.217 362.073 242.305 360.61 241.992 C 359.101 241.668 357.467 240.677 356.395 239.026 C 354.982 236.848 354.306 232.321 353.898 229.036 C 353.505 225.873 353.621 222.328 353.898 219.67 C 354.126 217.483 354.397 215.79 355.147 214.051 C 355.901 212.302 356.941 210.279 358.425 209.212 C 359.907 208.147 361.338 207.974 364.044 207.651 Z" transform="matrix(0.814848, 0, 0, 0.814848, -196.270523, 62.193539)" style="stroke-width:2px;stroke:transparent;fill:#ffcb37"/><path stroke-width="0" d="M 315.072 140.631 C 316.96 140.169 318.664 140.475 320.042 141.045 C 321.316 141.572 322.484 142.506 323.148 143.736 C 323.89 145.114 324.289 147.584 323.976 149.12 C 323.694 150.503 322.926 151.542 321.698 152.64 C 320.088 154.08 315.511 155.834 314.451 156.574 C 314.018 156.877 314.113 156.858 313.83 157.196 C 313.318 157.805 311.747 159.128 311.552 160.301 C 311.348 161.53 312.909 162.805 312.794 164.443 C 312.646 166.565 311.543 170.625 309.688 172.104 C 307.861 173.561 304.052 173.888 301.82 173.346 C 299.762 172.847 297.652 171.193 296.644 169.412 C 295.599 167.569 295.493 164.838 295.815 162.372 C 296.175 159.622 297.458 156.396 299.128 153.675 C 300.904 150.782 303.666 147.793 306.375 145.6 C 308.999 143.476 312.577 141.24 315.072 140.631 Z M 422.776 139.69 C 424.23 139.602 426.678 139.677 428.988 140.933 C 432.294 142.729 437.508 147.365 440.376 151.493 C 443.222 155.588 446.322 162.098 446.174 165.573 C 446.067 168.061 444.497 170.063 442.654 171.164 C 440.593 172.394 436.397 172.357 433.957 171.992 C 431.907 171.685 429.921 171.062 428.781 169.714 C 427.58 168.296 426.963 165.309 427.124 163.502 C 427.266 161.919 429.651 160.97 429.195 159.361 C 428.489 156.871 420.578 152.771 418.842 150.25 C 417.75 148.666 417.414 147.588 417.599 146.109 C 417.815 144.38 419.66 141.511 420.705 140.518 C 421.391 139.867 421.818 139.748 422.776 139.69 Z M 300.969 219.782 C 302.496 219.866 306.329 220.771 307.923 222.601 C 309.694 224.635 310.233 229.198 310.555 231.999 C 310.826 234.365 309.898 235.546 310.179 238.389 C 310.608 242.737 313.606 251.151 314.314 256.433 C 314.902 260.823 314.8 264.746 314.69 268.085 C 314.599 270.836 313.244 273.343 313.938 275.228 C 314.577 276.964 315.889 278.309 318.261 279.175 C 321.983 280.533 329.321 279.926 336.304 279.926 C 344.87 279.927 357.193 278.753 366.376 278.799 C 374.563 278.839 380.684 279.83 388.93 279.926 C 398.27 280.035 414.249 277.87 419.754 279.175 C 420.357 279.318 420.877 279.481 421.33 279.663 C 421.593 278.479 422.157 277.251 422.973 276.386 C 423.705 275.61 424.967 274.925 426.227 274.412 C 426.235 273.993 426.273 273.585 426.358 273.197 C 426.967 270.419 429.076 267.999 429.741 264.552 C 430.547 260.371 429.537 254.39 430.117 249.516 C 430.684 244.748 432.664 239.736 433.124 235.607 C 433.513 232.11 432.45 228.801 433.124 226.21 C 433.699 223.999 435.301 221.706 436.319 220.759 C 436.965 220.159 437.359 220.118 438.199 220.007 C 439.395 219.849 441.763 219.845 443.085 220.383 C 444.271 220.866 445.268 221.374 445.905 222.827 C 446.91 225.12 446.971 230.404 446.656 234.48 C 446.316 238.891 444.283 243.325 443.649 248.388 C 442.946 254.003 443.832 261.933 442.897 266.807 C 442.176 270.567 440.032 273.09 439.514 275.829 C 439.075 278.152 440.203 279.902 439.514 282.219 C 438.652 285.121 435.578 289.963 433.688 291.805 C 432.411 293.048 431.57 293.326 429.929 293.684 C 427.738 294.162 423.43 294.215 421.283 293.684 C 420.886 293.586 420.518 293.482 420.175 293.362 C 416.633 294.542 410.08 293.91 405.47 293.835 C 400.778 293.758 396.695 292.789 391.937 292.707 C 386.834 292.619 382.158 293.494 375.774 293.459 C 367.713 293.414 355.118 291.93 346.829 291.955 C 340.024 291.976 334.974 293.089 329.162 293.083 C 323.449 293.076 315.726 293.062 312.246 291.955 C 310.137 291.284 309.269 290.104 308.299 289.136 C 307.502 288.34 307.383 287.564 306.608 286.693 C 305.629 285.593 303.7 284.487 302.661 283.122 C 301.644 281.785 300.773 280.149 300.405 278.611 C 300.054 277.139 300.346 276.211 300.405 274.1 C 300.501 270.681 301.624 263.892 301.157 259.064 C 300.704 254.38 298.629 250.672 297.774 245.531 C 296.772 239.505 294.97 228.957 295.895 224.857 C 296.433 222.469 298.108 221.336 299.09 220.534 C 299.754 219.991 300.065 219.733 300.969 219.782 Z" transform="matrix(0.814848, 0, 0, 0.814848, -196.270523, 62.193539)" style="stroke-width:2px;fill:#8d8d8d;stroke:transparent"/><path stroke-width="0" d="M 367.671 179.084 C 368.842 179.078 369.65 178.955 370.611 179.239 C 371.638 179.542 372.865 180.166 373.629 180.941 C 374.374 181.698 374.893 182.785 375.176 183.804 C 375.46 184.823 375.425 186.375 375.331 187.054 C 375.277 187.448 374.735 187.631 375.022 187.827 C 375.891 188.423 385.463 187.184 388.407 187.905 C 390.295 188.367 391.608 189.648 392.198 190.149 C 392.476 190.384 392.314 190.575 392.585 190.69 C 393.066 190.895 394.468 190.536 395.37 190.69 C 396.273 190.845 396.411 191.403 398.001 191.619 C 401.641 192.112 416.733 191.251 420.129 191.619 C 421.491 191.766 421.582 191.861 422.296 192.238 C 423.105 192.664 423.941 193.187 424.694 194.172 C 425.706 195.494 425.972 198.911 427.48 199.975 C 428.959 201.019 431.774 199.895 433.592 200.594 C 435.377 201.28 437.288 202.895 438.312 204.075 C 439.107 204.992 439.448 205.895 439.705 206.861 C 439.955 207.805 440.008 208.606 439.859 209.801 C 439.658 211.418 438.857 214.361 438.157 215.836 C 437.637 216.932 437.113 217.602 436.378 218.235 C 435.643 218.866 434.692 219.368 433.747 219.627 C 432.786 219.891 431.712 219.96 430.652 219.782 C 429.499 219.589 428.614 218.655 427.093 218.389 C 425.06 218.034 421.467 218.09 419.201 218.389 C 417.292 218.641 415.731 219.569 414.249 219.782 C 412.993 219.963 411.955 219.937 410.845 219.782 C 409.738 219.627 408.949 219.097 407.595 218.854 C 405.801 218.531 402.584 218.127 400.787 218.235 C 399.437 218.315 398.684 219.073 397.537 219.008 C 396.273 218.936 394.241 217.689 393.514 217.616 C 393.173 217.581 393.189 217.774 392.895 217.77 C 392.41 217.765 391.448 217.618 390.728 217.306 C 390.608 217.254 390.488 217.203 390.368 217.15 C 390.426 217.156 390.483 217.16 390.541 217.164 C 391.05 217.196 391.637 217.149 392.113 217.074 C 392.541 217.006 392.837 216.953 393.281 216.76 C 393.416 216.701 393.569 216.628 393.73 216.545 C 393.385 216.582 393.034 216.596 392.706 216.572 C 391.913 216.514 391.037 216.269 390.326 215.943 C 389.645 215.631 388.963 215.104 388.507 214.686 C 388.14 214.348 387.948 214.072 387.699 213.675 C 387.418 213.228 387.109 212.589 386.936 212.104 C 386.786 211.686 386.72 211.364 386.666 210.936 C 386.606 210.46 386.604 209.77 386.621 209.364 C 386.634 209.071 386.831 208.913 386.711 208.668 C 386.53 208.299 385.579 207.928 385.139 207.478 C 384.718 207.048 384.36 206.491 384.107 206.041 C 383.892 205.661 383.776 205.349 383.658 204.964 C 383.583 204.719 383.516 204.456 383.466 204.188 C 383.307 204.576 383.191 204.982 383.109 205.376 C 383.051 205.655 383.02 205.899 382.999 206.177 C 382.969 206.246 382.941 206.314 382.913 206.384 C 381.013 205.755 376.106 206.165 374.48 205.855 C 373.573 205.682 373.6 205.206 372.778 205.236 C 371.39 205.286 368.924 206.989 366.433 207.402 C 363.442 207.899 357.164 206.433 355.833 207.557 C 354.981 208.277 356.085 209.861 355.988 211.039 C 355.889 212.258 355.696 213.684 355.214 214.753 C 354.765 215.752 354.043 216.668 353.28 217.306 C 352.56 217.908 351.68 218.312 350.804 218.544 C 349.926 218.777 348.904 218.833 348.019 218.699 C 347.152 218.567 346.459 217.687 345.543 217.77 C 344.438 217.87 344.061 219.327 341.829 219.782 C 337.104 220.746 319.044 220.77 314.285 219.782 C 312.015 219.311 311.344 218.478 310.494 217.693 C 309.826 217.077 309.539 216.458 309.256 215.681 C 308.945 214.829 308.732 213.684 308.791 212.741 C 308.849 211.829 309.126 210.913 309.565 210.111 C 310.018 209.283 310.769 208.4 311.499 207.867 C 312.174 207.374 313.217 207.507 313.743 206.938 C 314.305 206.331 314.222 204.995 314.672 204.23 C 315.091 203.517 315.542 202.948 316.296 202.451 C 317.217 201.844 318.555 201.35 320.01 201.058 C 321.741 200.711 325.323 201.642 326.123 200.749 C 326.796 199.995 325.29 198.106 325.504 196.803 C 325.73 195.423 326.764 193.632 327.593 192.702 C 328.256 191.957 329.497 191.96 329.837 191.309 C 330.164 190.683 329.612 189.728 329.682 188.911 C 329.755 188.054 329.928 187.139 330.301 186.28 C 330.702 185.356 331.161 184.386 332.08 183.572 C 333.225 182.558 335.465 181.379 337.032 180.941 C 338.384 180.563 339.587 180.667 340.901 180.787 C 342.268 180.911 343.917 181.186 345.079 181.715 C 346.113 182.186 347.008 182.984 347.632 183.649 C 348.15 184.202 348.46 184.659 348.715 185.352 C 349.014 186.161 349.175 187.43 349.179 188.292 C 349.184 189.021 348.532 189.873 348.87 190.226 C 349.279 190.654 350.915 190.418 352.042 190.226 C 353.319 190.008 355.465 189.701 356.143 188.833 C 356.753 188.052 355.962 186.667 356.298 185.506 C 356.688 184.158 357.574 182.279 358.619 181.251 C 359.595 180.291 360.855 179.764 362.255 179.394 C 363.824 178.979 366.177 179.093 367.671 179.084 Z" transform="matrix(0.814848, 0, 0, 0.814848, -196.270523, 62.193539)" style="stroke-width:2px;stroke:#fff6a9;fill:#fff6a9"/><path d="M 316.4 218.609 C 320.98 218.198 339.394 220.385 344.385 220.358 C 346.715 220.346 347.251 219.617 348.539 219.921 C 349.84 220.228 351.317 221.316 352.146 222.217 C 352.86 222.991 353.238 223.902 353.458 224.84 C 353.683 225.795 353.641 226.916 353.458 227.901 C 353.276 228.884 352.477 229.919 352.365 230.743 C 352.275 231.406 352.649 231.826 352.584 232.492 C 352.503 233.314 351.589 234.255 351.709 235.335 C 351.86 236.693 352.3 238.898 354.114 240.035 C 356.94 241.807 364.967 241.831 369.965 242.222 C 374.581 242.583 379.755 242.849 383.083 242.44 C 385.486 242.145 387.474 242.274 388.658 240.8 C 390.112 238.991 390.338 233.479 389.97 231.181 C 389.711 229.566 388.308 228.807 388.002 227.682 C 387.736 226.703 387.778 225.798 388.002 224.84 C 388.246 223.796 388.608 222.522 389.533 221.67 C 390.645 220.645 392.707 219.871 394.671 219.484 C 396.898 219.044 398.946 219.306 402.323 219.484 C 407.346 219.747 418.663 221.8 422.874 221.451 C 425.232 221.256 425.957 219.851 427.466 219.921 C 428.981 219.991 430.881 220.913 431.948 221.889 C 432.928 222.785 433.441 224.859 433.806 225.387 C 433.961 225.611 433.987 225.464 434.134 225.715 C 434.167 225.771 434.209 225.842 434.258 225.925 C 434.068 226.228 433.896 226.555 433.749 226.907 C 433.167 228.296 433.023 230.338 432.874 232.154 C 432.766 233.473 432.667 235.104 432.715 236.469 C 432.53 236.531 432.347 236.674 432.166 237.084 C 430.682 240.455 429.812 263.625 428.231 269.66 C 427.426 272.731 426.6 273.702 425.607 275.126 C 424.778 276.315 423.922 277.183 422.874 277.859 C 421.841 278.525 421.462 278.859 419.376 279.171 C 414.739 279.864 399.993 279.72 391.828 279.389 C 384.808 279.105 379.98 277.863 373.026 277.64 C 365.04 277.384 355.04 278.341 346.353 278.296 C 337.926 278.253 325.873 278.063 321.647 277.422 C 319.723 277.13 319.311 276.876 318.368 276.328 C 317.465 275.804 316.676 275.045 316.072 274.251 C 315.481 273.474 315.053 272.655 314.76 271.628 C 314.423 270.445 314.365 268.129 314.323 267.474 C 314.306 267.208 314.295 267.199 314.323 267.036 C 314.356 266.842 314.552 266.572 314.542 266.381 C 314.532 266.214 314.359 266.092 314.323 265.943 C 314.289 265.801 314.344 265.752 314.323 265.506 C 314.277 264.967 313.852 263.064 313.886 262.445 C 313.904 262.105 314.115 261.981 314.104 261.789 C 314.095 261.623 313.921 261.501 313.886 261.352 C 313.852 261.209 313.892 261.208 313.886 260.915 C 313.867 260.059 313.643 257.24 313.667 254.574 C 313.7 250.892 314.742 244.024 314.323 240.363 C 314.014 237.665 312.637 235.758 312.355 234.023 C 312.143 232.714 312.249 231.304 312.355 230.743 C 312.405 230.481 312.622 230.524 312.574 230.306 C 312.478 229.868 311.198 229.071 310.825 228.12 C 310.378 226.981 310.034 225.124 310.387 223.747 C 310.756 222.311 312.026 220.554 313.12 219.702 C 314.074 218.961 314.417 218.787 316.4 218.609 Z" opacity=".996" transform="matrix(0.814848, 0, 0, 0.814848, -196.270523, 62.193539)" style="opacity:1;mix-blend-mode:normal;isolation:auto;fill:#925711"/><path stroke-width="0" d="M 302.938 169.283 C 303.958 169.129 305.28 169.187 306.358 169.473 C 307.433 169.759 308.185 170.744 309.399 170.994 C 310.831 171.288 312.509 170.75 314.53 170.804 C 317.078 170.871 320.945 171.643 323.653 171.564 C 325.991 171.495 327.57 170.784 329.924 170.614 C 332.67 170.415 335.208 170.47 339.237 170.614 C 345.044 170.821 356.429 172.075 362.422 172.134 C 366.747 172.177 369.344 171.525 372.685 171.564 C 375.927 171.602 379.14 172.337 382.187 172.324 C 385.084 172.312 386.456 171.765 390.549 171.564 C 397.616 171.217 415.675 170.712 423.428 170.994 C 428.445 171.176 431.748 172.255 434.45 172.134 C 436.299 172.052 437.246 171.044 438.632 171.184 C 440.066 171.328 441.933 172.187 442.908 173.084 C 443.757 173.866 444.144 174.995 444.428 176.03 C 444.497 176.282 444.559 176.536 444.61 176.794 C 443.728 177.927 442.914 179.76 442.608 180.161 C 442.485 180.323 442.526 180.229 442.398 180.371 C 442.051 180.756 440.589 182.249 440.085 183.105 C 439.717 183.729 439.529 184.21 439.417 184.856 C 438.938 185.013 438.472 185.19 438.061 185.437 C 436.717 186.244 434.89 187.155 434.355 188.383 C 433.846 189.553 434.876 191.242 434.736 192.564 C 434.601 193.833 434.129 195.271 433.595 196.175 C 433.159 196.914 432.646 197.344 431.98 197.79 C 431.247 198.282 430.222 198.744 429.319 198.931 C 428.447 199.111 427.634 199.257 426.659 198.931 C 426.375 198.836 426.054 198.703 425.717 198.538 C 425.794 198.32 425.86 198.109 425.915 197.909 C 426.173 196.974 426.096 196.121 425.915 195.248 C 425.728 194.346 425.428 193.383 424.775 192.588 C 424.026 191.675 422.727 190.646 421.449 190.212 C 420.499 189.889 419.382 189.756 418.256 189.829 C 417.955 189.761 417.65 189.695 417.346 189.618 C 415.981 189.271 414.318 188.961 412.785 189.048 C 411.214 189.137 409.961 189.975 408.034 190.189 C 405.56 190.463 402.328 190.459 398.912 190.189 C 394.875 189.869 388.071 188.968 385.228 188.098 C 383.559 187.587 383.218 186.55 381.997 186.388 C 380.652 186.209 378.879 187.545 377.436 187.338 C 376.163 187.155 375.267 185.925 373.906 185.343 C 373.975 185.173 374.034 185.011 374.08 184.861 C 374.377 183.892 374.299 183.103 374.08 182.2 C 373.839 181.205 373.332 179.987 372.56 179.16 C 371.746 178.288 370.596 177.549 369.234 177.164 C 367.624 176.709 365.034 176.654 363.342 176.974 C 361.869 177.253 360.51 177.804 359.541 178.685 C 358.585 179.554 357.851 181.095 357.546 182.2 C 357.288 183.135 357.346 183.973 357.546 184.861 C 357.57 184.965 357.595 185.071 357.622 185.178 C 357.497 185.104 357.485 185.005 357.291 185.057 C 356.742 185.206 355.657 186.734 354.631 187.148 C 353.575 187.574 352.234 187.799 351.02 187.528 C 350.309 187.37 349.411 186.906 348.616 186.404 C 348.428 185.162 347.897 183.834 347.337 182.97 C 346.666 181.937 345.754 181.227 344.581 180.785 C 343.216 180.27 341.058 180.43 339.45 180.405 C 337.97 180.382 336.511 180.278 335.269 180.595 C 334.127 180.887 333.072 181.298 332.228 182.115 C 331.801 182.53 331.368 183.103 330.996 183.728 C 330.798 183.719 330.735 183.724 330.589 183.917 C 330.443 184.11 330.411 184.461 330.4 184.907 C 330.241 185.287 330.117 185.663 330.043 186.011 C 329.918 186.597 329.925 187.234 330.005 187.849 C 329.021 190.329 325.706 195.691 324.033 197.41 C 323.968 197.477 323.904 197.541 323.841 197.601 C 323.365 198.903 322.301 200.402 321.435 201.167 C 320.634 201.875 319.677 202.12 318.775 202.307 C 317.902 202.488 317.061 202.579 316.114 202.307 C 314.966 201.978 313.403 201.11 312.408 200.121 C 311.401 199.121 310.558 197.538 310.127 196.32 C 309.976 195.894 309.849 195.494 309.765 195.097 C 308.324 192.894 306.189 188.616 304.933 187.148 C 304.112 186.188 303.641 186.359 302.843 185.532 C 301.669 184.318 299.507 181.921 298.661 180.021 C 297.895 178.299 297.401 176.339 297.711 174.7 C 298.018 173.08 299.455 171.113 300.467 170.234 C 301.237 169.565 302.017 169.423 302.938 169.283 Z" transform="matrix(0.814848, 0, 0, 0.814848, -196.270523, 62.193539)" style="stroke-width:2px;stroke:#6e400c;fill:#6e400c"/><path stroke-width="0" d="M 361.095 146.119 C 375.576 145.985 406.786 144.323 416.865 147.038 C 422.262 148.492 422.012 152.065 424.227 154.346 C 426.08 156.255 427.103 158.607 427.804 160.606 C 428.412 162.341 428.881 163.943 428.519 165.613 C 428.12 167.46 426.899 170.034 425.121 171.158 C 424.545 171.522 423.865 171.768 423.113 171.932 C 419.759 171.759 416.029 171.752 413.902 171.95 C 411.252 171.527 408.42 170.747 404.375 170.442 C 396.056 169.814 382.982 169.625 370.037 169.727 C 354.727 169.847 326.053 173.152 317.815 171.515 C 314.236 170.804 313.287 169.624 312.271 168.117 C 311.352 166.754 311.354 165.043 311.555 163.11 C 311.809 160.669 313.07 156.837 314.417 154.525 C 315.603 152.49 317.304 151.004 318.888 149.696 C 320.358 148.483 321.897 147.303 323.538 146.835 C 325.123 146.382 326.848 146.665 328.546 146.835 C 330.304 147.01 331.095 147.782 333.911 147.908 C 339.262 148.148 350.056 146.222 361.095 146.119 Z" transform="matrix(0.814848, 0, 0, 0.814848, -196.270523, 62.193539)" style="stroke-width:2px;fill:#925711;stroke:transparent"/><g data-name="17-pirate treasure" transform="matrix(0.814848, 0, 0, 0.814848, -196.270523, 62.193539) matrix(2.455576, 0, 0, 2.455576, 292.769135, 138.687408)"><path d="M54.57,64H9.43a6.977,6.977,0,0,1-6.965-6.3L.005,33.1A1,1,0,0,1,1,32H25v2H2.105l2.35,23.5A4.985,4.985,0,0,0,9.43,62H54.57a4.985,4.985,0,0,0,4.975-4.5L61.9,34H39V32H63A1,1,0,0,1,64,33.1l-2.46,24.6A6.977,6.977,0,0,1,54.57,64Z"/><path d="M37,43H27a3,3,0,0,1-3-3V30a3,3,0,0,1,3-3H37a3,3,0,0,1,3,3V40A3,3,0,0,1,37,43ZM27,29a1,1,0,0,0-1,1V40a1,1,0,0,0,1,1H37a1,1,0,0,0,1-1V30a1,1,0,0,0-1-1Z"/><path d="M52.239,58H50V56h2.239a2.013,2.013,0,0,0,1.994-1.834L56,32.917,58,33.083l-1.77,21.249A4.024,4.024,0,0,1,52.239,58Z"/><rect width="2" height="2" x="46" y="56"/><path d="M44,58H11.761a4.024,4.024,0,0,1-3.987-3.668L6,33.083,8,32.917,9.767,54.166A2.013,2.013,0,0,0,11.761,56H44Z"/><rect width="11" height="2" x="7" y="37"/><rect width="2" height="2" x="20" y="37"/><rect width="15" height="2" x="42" y="37"/><path d="M36,40H28a1,1,0,0,1-1-1V31a1,1,0,0,1,1-1h8a1,1,0,0,1,1,1v8A1,1,0,0,1,36,40Zm-7-2h6V32H29Z"/><rect width="2" height="4" x="31" y="33"/><rect width="2" height="2" x="7" y="58"/><rect width="2" height="2" x="55" y="58"/><rect width="2" height="2" x="59" y="35"/><rect width="2" height="2" x="3" y="36"/><path d="M19.933,57.361l-1.866-.722c.948-2.443,3.358-4.453,6.612-5.516a30.39,30.39,0,0,1,6.178-1.118c.6-.067,1.2-.133,1.8-.21a14.746,14.746,0,0,0,6.953-2.3c.437-.322,1.446-1.176,1.413-2.145l-.005-.1a1.722,1.722,0,0,1,1.621-2A72.089,72.089,0,0,1,55.954,42H56l0,2h-.046A69.974,69.974,0,0,0,43.02,45.208l0,.071A4.706,4.706,0,0,1,40.8,49.1a16.791,16.791,0,0,1-7.887,2.679c-.61.078-1.224.146-1.838.213A28.673,28.673,0,0,0,25.3,53.023C24.031,53.438,20.968,54.69,19.933,57.361Z"/><path d="M8.153,50.988l-.306-1.976a58.029,58.029,0,0,0,12.505-3.2c.311-.125.618-.252.9-.393a26.86,26.86,0,0,0-6.556-1.19,29.187,29.187,0,0,1-7.037-1.288l.674-1.882a27.33,27.33,0,0,0,6.56,1.18,24.8,24.8,0,0,1,8.14,1.75,1.347,1.347,0,0,1,.442,2.358A8.081,8.081,0,0,1,21.1,47.668,59.943,59.943,0,0,1,8.153,50.988Z"/><path d="M54.964,54c-3.526,0-6.309,0-9.886-.271a2.189,2.189,0,0,1-.889-4.133C47.578,47.77,51.1,47,56,47v2c-4.548,0-7.784.7-10.822,2.335-.095.051-.2.107-.174.245a.2.2,0,0,0,.2.153C48.73,52,51.481,52,54.964,52Z"/><path d="M1.707,33.707.293,32.293l8-8A1,1,0,0,1,9,24h6v2H9.414Z"/><rect width="2" height="5.657" x="60" y="28.171" transform="translate(-4.055 52.209) rotate(-44.997)"/><path d="M63,14H56a1,1,0,0,1-1-1c0-5.392-2.1-7.15-3.35-7.719A2.791,2.791,0,0,1,50,2.757,2.76,2.76,0,0,1,52.757,0H53c6.271,0,11,5.589,11,13A1,1,0,0,1,63,14Zm-6.023-2h4.99C61.579,6.233,57.854,2,53,2h-.243A.758.758,0,0,0,52,2.757a.777.777,0,0,0,.478.7C54.077,4.187,56.7,6.252,56.977,12Z"/><path d="M8,14H1a1,1,0,0,1-1-1C0,5.589,4.729,0,11,0h.243A2.76,2.76,0,0,1,14,2.757a2.79,2.79,0,0,1-1.651,2.524C11.1,5.85,9,7.608,9,13A1,1,0,0,1,8,14ZM2.033,12h4.99c.274-5.748,2.9-7.813,4.5-8.54a.776.776,0,0,0,.479-.7A.758.758,0,0,0,11.243,2H11C6.146,2,2.421,6.233,2.033,12Z"/><rect width="3" height="2" x="53" y="12"/><rect width="43" height="2" x="8" y="12"/><rect width="38" height="2" x="13" y="2"/><rect width="12.916" height="2" x="53.157" y="17.5" transform="matrix(0.524, -0.852, 0.852, 0.524, 12.619, 59.581)"/><rect width="2" height="2.338" x="6.155" y="21.832" transform="translate(-10.995 7.163) rotate(-31.612)"/><rect width="2" height="8.221" x="2.154" y="12.39" transform="translate(-8.18 4.101) rotate(-31.608)"/><path d="M35,14H29a1,1,0,0,1-1-1V3a1,1,0,0,1,1-1h6a1,1,0,0,1,1,1V13A1,1,0,0,1,35,14Zm-5-2h4V4H30Z"/><path d="M56,11c-2.92,0-3.387-.019-5.978-.126l-.278-.012a8.326,8.326,0,0,1-2.089-.274A1.386,1.386,0,0,1,46.828,10a1.256,1.256,0,0,1-.126-.873,1.4,1.4,0,0,1,.737-.851c.184-.1.373-.191.562-.275C44.136,8,38.708,8,35,8V6c4,0,10,0,13.884.007h.171a4.474,4.474,0,0,1,1.193.1,1.588,1.588,0,0,1,1.365,1.637A1.672,1.672,0,0,1,50.791,8.9C52.772,8.984,53.4,9,56,9Z"/><path d="M8,11V9c3.03,0,5.328-.029,8.027-.173a6.176,6.176,0,0,1-.916-.64,1.937,1.937,0,0,1-.727-1.258,1.785,1.785,0,0,1,1.292-1.772,3.631,3.631,0,0,1,1.267-.149h.172C21,5,26,5,30,5V7c-4,0-9,0-12.88.009h-.236c.2.125.419.244.643.368a10.223,10.223,0,0,1,1.142.692,1.328,1.328,0,0,1,.559,1.661,1.426,1.426,0,0,1-.8.709,6.67,6.67,0,0,1-2.158.379C13.467,10.97,11.115,11,8,11Z"/><path d="M58,34H45a3,3,0,0,1,0-6v2a1,1,0,0,0,0,2H58a1,1,0,0,0,0-2,1,1,0,0,1,0-2,1,1,0,0,0,0-2H52a1,1,0,0,1,0-2,1,1,0,0,0,0-2H44a.988.988,0,0,0-.858.5,1,1,0,0,1-.865.5H42a1,1,0,0,1-1-1,1,1,0,0,0-1-1H32a1,1,0,0,1,0-2,1,1,0,0,0,0-2H28a1,1,0,0,0,0,2,1,1,0,0,1,0,2H26a1,1,0,0,0-.938.674,1,1,0,0,1-1.5.5A.993.993,0,0,0,23,22H21a1,1,0,0,1,0-2,1,1,0,0,0,0-2H17a1,1,0,0,0,0,2,1,1,0,0,1,0,2H15a1,1,0,0,0,0,2,1,1,0,0,1,0,2H10a1,1,0,0,0,0,2,1,1,0,0,1,0,2H8a1,1,0,0,0,0,2h4a1.02,1.02,0,0,0,.251-.039,1,1,0,0,1,.5,0A1.02,1.02,0,0,0,13,32h8a1,1,0,0,0,0-2H18V28h3a3,3,0,0,1,0,6H13a2.805,2.805,0,0,1-.5-.047A2.805,2.805,0,0,1,12,34H8a3,3,0,0,1-.789-5.895A3,3,0,0,1,10,24h2.171a3,3,0,0,1,2.04-3.895A3,3,0,0,1,17,16h4a3,3,0,0,1,2.86,3.907,3.01,3.01,0,0,1,1.352-.8A2.967,2.967,0,0,1,25,18a3,3,0,0,1,3-3h4a3,3,0,0,1,2.829,4H40a3,3,0,0,1,2.531,1.391A2.972,2.972,0,0,1,44,20h8a3,3,0,0,1,2.829,4H58a3,3,0,0,1,2.234,5A3,3,0,0,1,58,34Z"/></g></g><g><g><path stroke-width="0" d="M 48.051 160.747 C 48.682 160.672 49.22 160.759 49.793 161.015 C 50.45 161.309 51.279 161.89 51.736 162.556 C 52.206 163.242 52.162 164.397 52.54 165.102 C 52.877 165.729 53.188 166.104 53.813 166.643 C 54.666 167.378 56.786 167.984 57.497 168.987 C 58.132 169.882 58.321 171.251 58.167 172.203 C 58.024 173.088 57.457 174.002 56.76 174.547 C 56.029 175.121 54.872 175.542 53.813 175.485 C 52.615 175.421 51.032 174.492 49.927 173.878 C 48.953 173.336 48.247 172.923 47.448 172.069 C 46.468 171.019 45.155 169.202 44.635 167.781 C 44.174 166.525 44.012 165.088 44.233 164.03 C 44.427 163.1 44.992 162.233 45.64 161.685 C 46.273 161.149 47.316 160.836 48.051 160.747 Z M 37.284 190.398 C 38.385 190.164 40.666 190.065 41.974 190.398 C 43.102 190.686 43.836 191.748 44.787 192.006 C 45.669 192.245 46.411 192.099 47.467 192.006 C 48.811 191.888 50.639 191.338 52.29 191.202 C 53.986 191.063 56.129 191.035 57.516 191.202 C 58.569 191.329 59.303 191.514 60.061 191.872 C 60.792 192.216 61.542 192.723 62.004 193.279 C 62.427 193.787 62.675 194.415 62.808 195.02 C 62.94 195.621 63.021 196.195 62.808 196.896 C 62.528 197.816 61.926 199.205 60.865 200.045 C 59.565 201.074 57.176 201.78 55.104 202.189 C 52.908 202.622 49.873 202.556 48.003 202.457 C 46.611 202.382 45.744 202.335 44.653 201.921 C 43.485 201.477 41.676 200.146 41.237 199.777 C 41.074 199.64 41.159 199.631 41.036 199.509 C 40.798 199.274 40.288 198.65 39.696 198.437 C 38.974 198.178 37.677 198.569 36.882 198.303 C 36.161 198.061 35.524 197.647 35.074 197.03 C 34.568 196.336 34.059 195.162 34.136 194.217 C 34.216 193.22 35.063 191.835 35.676 191.202 C 36.152 190.71 36.534 190.557 37.284 190.398 Z M 91.336 201.751 C 92.685 201.661 95.01 201.784 96.963 202.555 C 99.288 203.472 103.097 205.89 104.265 207.445 C 105.027 208.46 105.101 209.443 104.935 210.393 C 104.76 211.389 103.921 212.687 103.126 213.273 C 102.395 213.813 101.21 213.934 100.446 213.943 C 99.824 213.951 99.752 213.639 98.839 213.541 C 96.892 213.333 90.045 213.741 87.852 213.407 C 86.656 213.225 86.165 212.968 85.574 212.603 C 85.073 212.294 84.737 211.899 84.436 211.465 C 84.134 211.029 83.881 210.53 83.766 209.991 C 83.644 209.419 83.607 208.779 83.766 208.115 C 83.951 207.341 84.264 206.459 84.971 205.636 C 85.898 204.559 88.157 203.05 89.326 202.421 C 90.129 201.988 90.427 201.812 91.336 201.751 Z M 134.794 220.191 C 136.351 219.878 138.069 219.932 139.215 220.191 C 140.104 220.393 140.759 220.661 141.292 221.263 C 141.901 221.95 142.431 223.384 142.498 224.278 C 142.554 225.026 142.274 225.711 141.962 226.288 C 141.661 226.843 141.015 227.473 140.689 227.694 C 140.5 227.823 140.292 227.702 140.22 227.828 C 140.129 227.988 140.434 228.294 140.354 228.699 C 140.216 229.403 139.911 230.863 138.813 231.848 C 137.155 233.336 132.546 235.171 129.837 235.867 C 127.587 236.445 125.285 236.63 123.673 236.269 C 122.387 235.981 121.267 235.277 120.659 234.46 C 120.096 233.705 119.808 232.664 119.989 231.647 C 120.21 230.403 121.218 228.919 122.468 227.56 C 124.035 225.857 126.985 223.723 129.167 222.469 C 131.082 221.369 133.026 220.547 134.794 220.191 Z M 39.503 221.042 C 40.54 220.946 40.986 220.944 41.915 221.31 C 43.212 221.821 45.479 223.366 46.537 224.459 C 47.376 225.325 47.849 226.127 48.145 227.138 C 48.459 228.211 48.423 229.7 48.279 230.756 C 48.154 231.673 47.839 232.529 47.475 233.167 C 47.165 233.712 46.91 234.126 46.336 234.44 C 45.591 234.849 44.004 235.138 43.121 235.11 C 42.423 235.088 42.208 234.652 41.379 234.574 C 40.051 234.45 37.075 235.2 35.484 234.976 C 34.222 234.799 33.283 234.3 32.402 233.77 C 31.584 233.278 30.982 232.703 30.325 231.962 C 29.589 231.131 28.643 229.355 28.249 228.947 C 28.087 228.78 28.045 228.89 27.914 228.746 C 27.669 228.478 27.155 227.718 26.976 227.138 C 26.796 226.557 26.674 225.93 26.842 225.263 C 27.045 224.454 27.769 223.221 28.383 222.65 C 28.894 222.174 29.547 221.975 30.124 221.846 C 30.663 221.726 31.194 221.726 31.732 221.846 C 32.31 221.975 32.635 222.613 33.474 222.65 C 34.819 222.708 37.99 221.183 39.503 221.042 Z" transform="matrix(0.656327, 0, 0, 0.656327, 114.119873, 307.253204) matrix(1, 0, 0, 1, -84.595909, -214.635406)" style="stroke-width:2px;fill:#0084ff;stroke:rgba(129,151,57,.02)"/><path d="M 96.749 105.779 C 97.679 105.538 98.479 105.512 99.431 105.779 C 100.577 106.101 102.285 107.135 103.12 107.903 C 103.768 108.5 103.869 109.777 104.349 109.803 C 104.864 109.831 105.393 108.34 106.138 107.791 C 106.936 107.204 108.033 106.672 109.044 106.45 C 110.046 106.229 110.969 106.156 112.173 106.45 C 113.757 106.836 116.24 108.066 117.762 109.132 C 119.111 110.078 120.036 111.13 121.003 112.374 C 122.022 113.683 123.192 115.157 123.686 116.845 C 124.21 118.635 124.272 120.835 123.909 122.881 C 123.52 125.078 122.446 127.474 121.227 129.587 C 119.97 131.766 118.426 133.935 116.421 135.734 C 114.275 137.66 111.084 139.854 108.597 140.652 C 106.499 141.326 104.323 141.117 102.561 140.876 C 101.031 140.667 99.769 140.241 98.537 139.535 C 97.265 138.805 96.342 138.034 95.072 136.517 C 93.229 134.315 89.982 129.048 88.813 126.681 C 88.087 125.212 87.898 124.642 87.695 123.328 C 87.451 121.749 87.091 119.885 87.695 117.739 C 88.506 114.859 91.587 109.459 93.396 107.568 C 94.551 106.36 95.679 106.057 96.749 105.779 Z M 100.372 141.64 C 101.829 141.521 103.955 142.802 105.514 142.757 C 106.904 142.717 107.99 141.53 109.314 141.64 C 110.772 141.761 112.835 142.625 113.896 143.763 C 114.956 144.9 115.55 147.034 115.685 148.458 C 115.8 149.679 115.155 150.162 115.014 151.811 C 114.772 154.642 114.928 160.024 115.014 165 C 115.117 170.893 116.518 181.212 115.685 185.119 C 115.225 187.277 114.526 188.058 113.338 189.031 C 112.036 190.098 109.83 190.707 107.973 191.043 C 107.013 191.217 105.997 191.331 104.983 191.34 C 107.344 191.915 108.146 193.192 109.822 193.557 C 111.483 193.918 113.536 193.354 114.963 193.557 C 116.12 193.721 116.828 193.943 117.869 194.451 C 119.139 195.07 120.966 196.128 122.005 197.245 C 122.966 198.279 123.638 199.489 124.017 200.822 C 124.417 202.23 124.668 203.972 124.24 205.516 C 123.769 207.218 122.268 209.492 120.999 210.546 C 119.938 211.428 118.819 211.645 117.422 211.888 C 115.77 212.174 113.356 212.149 111.61 211.888 C 110.04 211.652 108.462 211.199 107.363 210.546 C 106.424 209.989 105.839 209.274 105.239 208.423 C 104.593 207.508 104.392 205.912 103.674 205.181 C 103.043 204.539 102.61 204.362 101.327 204.063 C 98.918 203.504 92.304 202.709 88.808 203.169 C 85.926 203.548 82.871 204.51 81.543 205.852 C 80.517 206.889 81.001 208.761 80.425 209.764 C 79.938 210.613 79.398 211.178 78.525 211.664 C 77.463 212.255 75.64 212.834 74.278 212.782 C 72.961 212.731 72.158 211.319 70.478 211.44 C 67.928 211.624 63.386 215.156 59.971 215.911 C 56.843 216.603 54.013 216.427 50.806 216.135 C 47.333 215.819 43.269 215.066 39.852 213.899 C 36.539 212.768 31.784 210.229 30.575 209.317 C 30.107 208.964 30.231 208.788 30.016 208.534 C 29.788 208.266 29.541 208.152 29.233 207.752 C 28.751 207.125 27.738 205.871 27.445 204.846 C 27.162 203.855 27.205 202.749 27.445 201.716 C 27.699 200.624 28.282 199.286 29.01 198.475 C 29.688 197.72 30.583 197.215 31.581 196.91 C 32.677 196.575 34.067 196.301 35.381 196.686 C 36.952 197.147 38.636 199.21 40.299 200.04 C 41.843 200.81 42.917 201.169 44.993 201.604 C 47.967 202.228 53.802 203.394 57.065 202.946 C 59.676 202.587 61.998 201.325 63.436 200.151 C 64.573 199.223 64.878 197.631 65.56 196.91 C 66.058 196.383 66.534 196.359 67.013 195.904 C 67.58 195.364 67.907 194.34 68.689 193.78 C 69.587 193.138 70.902 192.678 72.266 192.439 C 73.829 192.166 76.152 192.386 77.631 192.439 C 78.79 192.481 79.34 192.879 80.537 192.663 C 82.238 192.355 84.071 190.385 87.02 189.98 C 90.143 189.551 96.115 189.972 100.645 190.586 C 99.105 190.032 97.524 189.196 96.683 188.249 C 95.715 187.157 95.685 186.699 95.342 184.225 C 94.531 178.363 93.465 153.689 94.672 147.564 C 95.226 144.748 96.177 143.968 97.242 142.981 C 98.138 142.152 99.148 141.74 100.372 141.64 Z M 24.601 155.914 C 26.262 155.665 32.298 155.231 35.108 155.914 C 37.391 156.469 39.41 157.402 40.585 158.932 C 41.774 160.481 41.335 162.866 42.149 165.191 C 43.136 168.007 44.774 172.824 46.397 174.692 C 47.526 175.992 48.644 176.164 50.085 176.704 C 51.743 177.325 54.256 177.327 55.897 178.045 C 57.363 178.686 58.715 179.403 59.586 180.616 C 60.521 181.919 61.23 184.471 61.151 185.758 C 61.093 186.69 60.749 187.357 60.033 187.881 C 59.095 188.569 57.51 188.836 55.45 188.999 C 52.383 189.241 45.132 189.061 42.708 188.328 C 41.371 187.924 41.035 187.378 40.361 186.652 C 39.64 185.875 38.939 185.069 38.573 183.746 C 38.073 181.944 38.996 178.876 38.349 176.369 C 37.634 173.596 34.839 170.087 34.102 167.874 C 33.594 166.351 34.521 164.928 33.543 164.185 C 32.156 163.131 26.512 164.528 24.601 163.962 C 23.386 163.602 22.758 163.06 22.254 162.285 C 21.728 161.477 21.39 160.134 21.583 159.156 C 21.781 158.156 22.892 156.868 23.483 156.361 C 23.874 156.026 23.903 156.019 24.601 155.914 Z M 129.089 214.925 C 130.634 214.821 131.39 214.816 132.219 215.148 C 132.94 215.437 133.506 215.957 133.895 216.601 C 134.321 217.305 134.71 218.361 134.566 219.284 C 134.403 220.327 133.505 221.756 132.666 222.525 C 131.879 223.246 131.121 223.48 129.76 223.867 C 127.708 224.45 122.956 223.818 120.93 225.208 C 119.108 226.458 118.207 230.487 117.688 231.244 C 117.51 231.504 117.524 231.395 117.353 231.579 C 117.019 231.938 116.409 232.957 115.677 233.479 C 114.853 234.067 113.901 234.564 112.547 234.82 C 110.725 235.166 107.01 234.969 105.393 234.82 C 104.39 234.728 103.833 234.172 103.27 234.373 C 102.725 234.568 102.877 235.573 102.04 235.938 C 100.528 236.598 97.186 236.436 93.322 236.385 C 87.556 236.309 76.765 235.109 69.626 234.82 C 63.382 234.568 55.755 235.336 52.637 234.597 C 51.026 234.215 50.662 233.844 49.842 232.92 C 49.283 232.289 48.743 231.012 48.276 229.86 C 48.809 229.75 49.316 229.587 49.665 229.413 C 50.235 229.128 50.541 228.733 50.847 228.23 C 51.189 227.67 51.564 226.921 51.543 226.144 C 51.518 225.235 51.221 224.079 50.43 223.083 C 49.382 221.765 46.899 219.915 45.074 219.258 C 43.437 218.668 41.357 218.744 40.066 218.98 C 39.081 219.159 38.341 219.539 37.771 220.092 C 37.212 220.635 36.758 221.423 36.658 222.249 C 36.598 222.743 36.661 223.391 36.806 224.009 C 36.218 224.038 35.611 224.072 34.977 224.09 C 32.599 224.159 28.459 223.853 27.041 224.537 C 26.197 224.944 26.101 226.079 25.811 226.326 C 25.671 226.445 25.431 226.336 25.476 226.437 C 25.605 226.729 28.975 227.82 29.723 228.896 C 30.368 229.824 30.406 231.278 30.17 232.25 C 29.95 233.161 29.365 234.086 28.494 234.597 C 27.451 235.209 25.317 235.396 24.023 235.267 C 22.908 235.156 22.119 234.263 21.117 234.15 C 20.108 234.036 18.912 234.819 17.987 234.597 C 17.095 234.383 16.305 233.825 15.64 232.92 C 14.765 231.73 13.979 229.12 13.628 227.555 C 13.345 226.291 13.049 225.498 13.404 224.202 C 13.894 222.417 15.771 219.087 17.317 217.831 C 18.573 216.81 20.707 216.554 21.564 216.49 C 22.02 216.456 21.795 216.676 22.458 216.713 C 24.683 216.837 37.067 215.507 41.459 215.819 C 44.261 216.018 45.853 217.13 47.495 217.16 C 48.757 217.183 49.175 216.552 50.625 216.49 C 52.901 216.391 58.675 217.674 60.461 217.384 C 61.365 217.237 61.09 216.691 62.026 216.49 C 63.968 216.072 67.772 216.442 73.203 216.49 C 82.506 216.572 106.358 217.811 116.124 217.16 C 122.209 216.755 126.348 215.109 129.089 214.925 Z" transform="matrix(0.656327, 0, 0, 0.656327, 114.119873, 307.253204) matrix(1, 0, 0, 1, -84.595909, -214.635406)" style="fill:#fae742"/><path d="M 131.751 210.346 L 127.721 210.346 C 129.181 208.026 130.051 205.296 130.051 202.356 C 130.051 195.956 126.001 190.486 120.341 188.346 L 120.341 137.526 L 125.621 130.306 C 127.731 127.416 128.851 124.006 128.851 120.426 L 128.851 118.226 C 128.851 108.966 121.291 101.446 112.011 101.446 L 98.601 101.446 C 89.321 101.446 81.771 108.966 81.771 118.226 L 81.771 120.426 C 81.771 124.006 82.891 127.416 85.001 130.306 L 90.271 137.526 L 90.271 187.366 L 66.021 187.366 L 66.021 185.696 C 66.021 175.206 61.321 165.416 53.131 158.826 C 46.981 153.876 39.251 151.146 31.351 151.146 L 24.321 151.146 C 19.621 151.146 15.791 154.966 15.791 159.656 C 15.791 164.346 19.621 168.166 24.321 168.166 C 26.791 168.166 29.221 169.016 31.151 170.566 L 31.471 170.836 C 34.321 173.116 35.951 176.516 35.951 180.156 L 35.951 187.586 C 28.861 188.776 23.431 194.936 23.431 202.356 C 23.431 205.296 24.301 208.026 25.761 210.346 L 21.731 210.346 C 13.461 210.346 6.741 217.076 6.741 225.336 C 6.741 233.606 13.461 240.326 21.731 240.326 L 131.751 240.326 C 140.021 240.326 146.741 233.606 146.741 225.336 C 146.741 217.076 140.021 210.346 131.751 210.346 Z M 88.771 120.426 L 88.771 118.226 C 88.771 113.956 91.531 110.326 95.371 108.996 L 95.371 111.846 C 95.371 113.226 96.491 114.346 97.871 114.346 C 99.251 114.346 100.371 113.226 100.371 111.846 L 100.371 108.446 L 102.811 108.446 L 102.811 114.916 C 102.811 116.296 103.931 117.416 105.311 117.416 C 106.691 117.416 107.811 116.296 107.811 114.916 L 107.811 108.446 L 110.251 108.446 L 110.251 111.846 C 110.251 113.226 111.371 114.346 112.751 114.346 C 114.131 114.346 115.251 113.226 115.251 111.846 L 115.251 108.996 C 119.081 110.326 121.851 113.956 121.851 118.226 L 121.851 120.426 C 121.851 122.506 121.201 124.496 119.971 126.176 L 113.261 135.356 C 111.411 137.876 108.441 139.386 105.311 139.386 C 102.171 139.386 99.201 137.876 97.361 135.356 L 90.651 126.176 C 89.421 124.496 88.771 122.506 88.771 120.426 Z M 99.751 160.886 C 100.231 161.316 100.821 161.526 101.411 161.526 C 102.101 161.526 102.791 161.236 103.281 160.686 L 105.311 158.406 L 107.331 160.686 C 107.821 161.236 108.511 161.526 109.201 161.526 C 109.791 161.526 110.381 161.316 110.861 160.886 C 111.891 159.976 111.981 158.396 111.071 157.366 L 107.811 153.696 L 107.811 146.186 C 109.761 145.896 111.631 145.266 113.341 144.336 L 113.341 187.366 L 97.271 187.366 L 97.271 144.336 C 98.991 145.266 100.861 145.896 102.811 146.186 L 102.811 153.696 L 99.551 157.366 C 98.631 158.396 98.721 159.976 99.751 160.886 Z M 48.741 164.276 C 52.091 166.966 54.691 170.326 56.451 174.086 L 55.231 173.906 C 50.501 173.176 46.801 169.366 46.211 164.646 L 45.931 162.316 C 46.901 162.916 47.851 163.556 48.741 164.276 Z M 35.861 165.376 L 35.531 165.116 C 32.371 162.566 28.391 161.166 24.321 161.166 C 23.481 161.166 22.791 160.486 22.791 159.656 C 22.791 158.826 23.481 158.146 24.321 158.146 L 31.351 158.146 C 34.501 158.146 37.621 158.696 40.571 159.726 L 41.251 165.256 C 42.111 172.196 47.541 177.776 54.471 178.846 L 58.301 179.436 C 58.771 181.466 59.021 183.566 59.021 185.696 L 59.021 187.366 L 42.951 187.366 L 42.951 180.156 C 42.951 174.386 40.361 169.006 35.861 165.376 Z M 38.431 194.366 L 62.471 194.366 C 58.021 200.696 49.471 202.766 42.581 199.016 L 35.251 195.026 C 36.221 194.606 37.301 194.366 38.431 194.366 Z M 31.371 198.616 L 40.191 203.416 C 43.281 205.086 46.621 205.886 49.911 205.886 C 56.741 205.886 63.391 202.456 67.221 196.276 L 68.401 194.366 L 115.051 194.366 C 119.461 194.366 123.051 197.946 123.051 202.356 C 123.051 206.766 119.461 210.346 115.051 210.346 L 109.391 210.346 C 108.501 206.476 106.031 203.066 102.491 201.046 L 100.611 199.976 C 96.971 197.896 92.601 197.506 88.641 198.896 C 83.561 200.686 79.951 205.136 79.181 210.346 L 38.431 210.346 C 34.021 210.346 30.431 206.766 30.431 202.356 C 30.431 201.006 30.771 199.726 31.371 198.616 Z M 104.171 210.346 L 84.261 210.346 C 84.981 207.276 87.231 204.696 90.301 203.616 C 92.891 202.706 95.751 202.956 98.131 204.316 L 100.011 205.396 C 101.981 206.516 103.421 208.286 104.171 210.346 Z M 47.131 230.946 L 46.231 233.326 L 34.361 233.326 L 30.331 229.606 C 29.761 229.076 29.431 228.336 29.431 227.566 C 29.431 226.176 30.481 224.996 31.861 224.806 L 41.171 223.516 C 42.881 223.286 44.641 223.866 45.871 225.086 C 47.401 226.616 47.901 228.916 47.131 230.946 Z M 114.721 233.326 L 51.571 233.326 L 51.811 232.716 C 53.271 228.846 52.321 224.466 49.401 221.546 C 47.071 219.236 43.741 218.116 40.491 218.566 L 31.181 219.846 C 27.331 220.376 24.431 223.696 24.431 227.566 C 24.431 229.726 25.351 231.806 26.941 233.276 L 27.001 233.326 L 21.731 233.326 C 17.321 233.326 13.741 229.746 13.741 225.336 C 13.741 220.936 17.321 217.346 21.731 217.346 L 131.751 217.346 C 132.811 217.346 133.821 217.556 134.741 217.936 L 134.171 218.056 C 125.611 219.956 118.521 225.586 114.721 233.326 Z M 131.751 233.326 L 120.441 233.326 C 123.751 228.086 129.031 224.326 135.251 222.946 L 139.051 222.106 C 139.491 223.096 139.741 224.186 139.741 225.336 C 139.741 229.746 136.161 233.326 131.751 233.326 Z" transform="matrix(0.656327, 0, 0, 0.656327, 114.119873, 307.253204) matrix(1, 0, 0, 1, -84.595909, -214.635406)"/><path d="M 99.711 123.346 C 99.711 124.916 98.431 126.196 96.851 126.196 C 95.271 126.196 93.991 124.916 93.991 123.346 C 93.991 121.776 95.271 120.496 96.851 120.496 C 98.431 120.496 99.711 121.776 99.711 123.346 Z" transform="matrix(0.656327, 0, 0, 0.656327, 114.119873, 307.253204) matrix(1, 0, 0, 1, -84.595909, -214.635406)"/><path d="M 115.516 123.462 C 115.516 125.032 114.236 126.312 112.656 126.312 C 111.076 126.312 109.796 125.032 109.796 123.462 C 109.796 121.892 111.076 120.612 112.656 120.612 C 114.236 120.612 115.516 121.892 115.516 123.462 Z" transform="matrix(0.656327, 0, 0, 0.656327, 114.119873, 307.253204) matrix(1, 0, 0, 1, -84.595909, -214.635406)"/></g></g><path d="M 192.67 256.378 L 155.02 256.378 L 155.02 246.198 L 164.87 246.198 L 164.87 199.328 L 155.02 199.328 L 155.02 189.218 L 175.75 189.218 L 178.36 204.798 C 180.86 199.158 183.967 194.865 187.68 191.918 C 191.387 188.971 196.167 187.498 202.02 187.498 C 204.013 187.498 205.803 187.658 207.39 187.978 C 208.983 188.298 210.563 188.711 212.13 189.218 L 207.87 201.428 C 206.51 201.048 205.237 200.761 204.05 200.568 C 202.863 200.375 201.55 200.278 200.11 200.278 C 195.237 200.278 191.027 202.101 187.48 205.748 C 183.94 209.395 181.153 214.568 179.12 221.268 L 179.12 246.198 L 192.67 246.198 L 192.67 256.378 Z M 209.71 213.958 L 199.54 213.958 L 199.54 197.418 L 201.32 189.218 L 212.13 189.218 L 209.71 213.958 ZM 233.688 189.218 L 267.398 189.218 L 267.398 245.948 L 285.648 245.948 L 285.648 256.378 L 233.048 256.378 L 233.048 245.948 L 253.148 245.948 L 253.148 199.648 L 233.688 199.648 L 233.688 189.218 Z M 257.478 156.338 C 260.271 156.338 262.528 157.185 264.248 158.878 C 265.968 160.578 266.828 162.698 266.828 165.238 C 266.828 167.785 265.968 169.925 264.248 171.658 C 262.528 173.398 260.271 174.268 257.478 174.268 C 254.765 174.268 252.538 173.398 250.798 171.658 C 249.058 169.925 248.188 167.785 248.188 165.238 C 248.188 162.698 249.058 160.578 250.798 158.878 C 252.538 157.185 254.765 156.338 257.478 156.338 ZM 339.386 246.388 C 342.526 246.388 345.453 245.848 348.166 244.768 C 350.879 243.688 353.466 242.278 355.926 240.538 L 362.536 249.698 C 359.616 252.198 356.066 254.225 351.886 255.778 C 347.713 257.325 343.399 258.098 338.946 258.098 C 332.073 258.098 326.199 256.645 321.326 253.738 C 316.453 250.831 312.723 246.751 310.136 241.498 C 307.549 236.238 306.256 230.111 306.256 223.118 C 306.256 216.291 307.559 210.195 310.166 204.828 C 312.773 199.468 316.536 195.228 321.456 192.108 C 326.376 188.995 332.289 187.438 339.196 187.438 C 343.776 187.438 347.996 188.115 351.856 189.468 C 355.716 190.828 359.256 192.841 362.476 195.508 L 355.926 204.478 C 353.299 202.658 350.616 201.271 347.876 200.318 C 345.143 199.365 342.336 198.888 339.456 198.888 C 334.156 198.888 329.819 200.838 326.446 204.738 C 323.073 208.638 321.386 214.765 321.386 223.118 C 321.386 228.711 322.163 233.215 323.716 236.628 C 325.263 240.041 327.393 242.521 330.106 244.068 C 332.819 245.615 335.913 246.388 339.386 246.388 ZM 383.334 162.378 L 397.584 160.848 L 397.584 197.418 C 400.297 194.111 403.477 191.621 407.124 189.948 C 410.771 188.275 414.521 187.438 418.374 187.438 C 424.694 187.438 429.401 189.185 432.494 192.678 C 435.594 196.178 437.144 201.088 437.144 207.408 L 437.144 256.378 L 422.894 256.378 L 422.894 209.628 C 422.894 205.601 422.131 202.708 420.604 200.948 C 419.077 199.188 416.617 198.308 413.224 198.308 C 411.104 198.308 409.081 198.785 407.154 199.738 C 405.227 200.698 403.447 201.938 401.814 203.458 C 400.181 204.985 398.771 206.618 397.584 208.358 L 397.584 256.378 L 383.334 256.378 L 383.334 162.378 ZM 518.292 279.658 L 454.692 279.658 L 454.692 267.888 L 518.292 267.888 L 518.292 279.658 Z" transform="matrix(1.0455399751663208, 0, -0.004358999896794558, 1.0455399751663208, 44.829490661621094, 33.5527458190918)" style="fill:url(#gradient-0);stroke:#fff;stroke-opacity:0;stroke-width:.901412px;white-space:pre;filter:url(#outline-filter-0);vector-effect:non-scaling-stroke"/></svg>