<svg class="rich-terminal" viewBox="0 0 1222 580.0" xmlns="http://www.w3.org/2000/svg">
    <style>

    @font-face {
        font-family: "Fira Code";
        src: local("FiraCode-Regular"),
                url("https://cdnjs.cloudflare.com/ajax/libs/firacode/6.2.0/woff2/FiraCode-Regular.woff2") format("woff2"),
                url("https://cdnjs.cloudflare.com/ajax/libs/firacode/6.2.0/woff/FiraCode-Regular.woff") format("woff");
        font-style: normal;
        font-weight: 400;
    }
    @font-face {
        font-family: "Fira Code";
        src: local("FiraCode-Bold"),
                url("https://cdnjs.cloudflare.com/ajax/libs/firacode/6.2.0/woff2/FiraCode-Bold.woff2") format("woff2"),
                url("https://cdnjs.cloudflare.com/ajax/libs/firacode/6.2.0/woff/FiraCode-Bold.woff") format("woff");
        font-style: bold;
        font-weight: 700;
    }

    .terminal-1573804848-matrix {
        font-family: Fira Code, monospace;
        font-size: 20px;
        font-variant: east-asian-width-values;
        line-height: 31.0px;
    }

    .terminal-1573804848-title {
        font-size: 14px;
        opacity: 0.8;
        font-weight: bold;
        font-family: arial;
    }

    .terminal-1573804848-r1 { fill: #b9bcba }
.terminal-1573804848-r2 { fill: #0f722f }
.terminal-1573804848-r3 { fill: #c5a635 }
.terminal-1573804848-r4 { fill: #0f722f;font-style: italic; }
.terminal-1573804848-r5 { fill: #b9bcba;font-weight: bold }
.terminal-1573804848-r6 { fill: #879a3b }
.terminal-1573804848-r7 { fill: #b9bcba;font-style: italic; }
.terminal-1573804848-r8 { fill: #2e706d;font-weight: bold }
.terminal-1573804848-r9 { opacity: 0.6;fill: #578fa4 }
.terminal-1573804848-r10 { opacity: 0.6;fill: #855c8d }
.terminal-1573804848-r11 { opacity: 0.6;fill: #879a3b }
.terminal-1573804848-r12 { fill: #578fa4 }
.terminal-1573804848-r13 { fill: #855c8d }
.terminal-1573804848-r14 { opacity: 0.6;fill: #b9bcba;font-style: italic; }
    </style>
    <rect fill="#191919" x="16" y="20" width="1190" height="540.0" rx="12"/><text class="terminal-1573804848-title" fill="#b9bcba" text-anchor="middle" x="595" y="40">Rich</text>
            <circle cx="35" cy="36" r="6" fill="#ff5f57"/>
            <circle cx="55" cy="36" r="6" fill="#febc2e"/>
            <circle cx="75" cy="36" r="6" fill="#28c840"/>

    <g transform="translate(28, 52)">
    <rect fill="#191919" x="0.0" y="0.0" width="1166.6000000000001" height="32.0"/><rect fill="#191919" x="1165.6000000000001" y="0.0" width="1.0" height="32.0"/><rect fill="#191919" x="0.0" y="31.0" width="311.0" height="32.0"/><rect fill="#191919" x="310.0" y="31.0" width="125.0" height="32.0"/><rect fill="#191919" x="434.0" y="31.0" width="13.4" height="32.0"/><rect fill="#191919" x="446.40000000000003" y="31.0" width="50.6" height="32.0"/><rect fill="#191919" x="496.0" y="31.0" width="25.8" height="32.0"/><rect fill="#191919" x="520.8000000000001" y="31.0" width="125.0" height="32.0"/><rect fill="#191919" x="644.8000000000001" y="31.0" width="13.4" height="32.0"/><rect fill="#191919" x="657.2" y="31.0" width="13.4" height="32.0"/><rect fill="#191919" x="669.6" y="31.0" width="63.0" height="32.0"/><rect fill="#191919" x="731.6" y="31.0" width="25.8" height="32.0"/><rect fill="#191919" x="756.4" y="31.0" width="75.4" height="32.0"/><rect fill="#191919" x="830.8000000000001" y="31.0" width="13.4" height="32.0"/><rect fill="#191919" x="843.2" y="31.0" width="323.40000000000003" height="32.0"/><rect fill="#191919" x="1165.6000000000001" y="31.0" width="1.0" height="32.0"/><rect fill="#191919" x="0.0" y="62.0" width="1166.6000000000001" height="32.0"/><rect fill="#191919" x="1165.6000000000001" y="62.0" width="1.0" height="32.0"/><rect fill="#191919" x="0.0" y="93.0" width="149.8" height="32.0"/><rect fill="#191919" x="148.8" y="93.0" width="856.6" height="32.0"/><rect fill="#191919" x="1004.4" y="93.0" width="162.20000000000002" height="32.0"/><rect fill="#191919" x="1165.6000000000001" y="93.0" width="1.0" height="32.0"/><rect fill="#191919" x="0.0" y="124.0" width="149.8" height="32.0"/><rect fill="#191919" x="148.8" y="124.0" width="856.6" height="32.0"/><rect fill="#191919" x="1004.4" y="124.0" width="162.20000000000002" height="32.0"/><rect fill="#191919" x="1165.6000000000001" y="124.0" width="1.0" height="32.0"/><rect fill="#191919" x="0.0" y="155.0" width="149.8" height="32.0"/><rect fill="#191919" x="148.8" y="155.0" width="13.4" height="32.0"/><rect fill="#191919" x="161.20000000000002" y="155.0" width="174.6" height="32.0"/><rect fill="#191919" x="334.8" y="155.0" width="13.4" height="32.0"/><rect fill="#191919" x="347.2" y="155.0" width="435.0" height="32.0"/><rect fill="#191919" x="781.2" y="155.0" width="13.4" height="32.0"/><rect fill="#191919" x="793.6" y="155.0" width="199.4" height="32.0"/><rect fill="#191919" x="992.0" y="155.0" width="13.4" height="32.0"/><rect fill="#191919" x="1004.4" y="155.0" width="162.20000000000002" height="32.0"/><rect fill="#191919" x="1165.6000000000001" y="155.0" width="1.0" height="32.0"/><rect fill="#191919" x="0.0" y="186.0" width="149.8" height="32.0"/><rect fill="#191919" x="148.8" y="186.0" width="856.6" height="32.0"/><rect fill="#191919" x="1004.4" y="186.0" width="162.20000000000002" height="32.0"/><rect fill="#191919" x="1165.6000000000001" y="186.0" width="1.0" height="32.0"/><rect fill="#191919" x="0.0" y="217.0" width="149.8" height="32.0"/><rect fill="#191919" x="148.8" y="217.0" width="13.4" height="32.0"/><rect fill="#191919" x="161.20000000000002" y="217.0" width="174.6" height="32.0"/><rect fill="#191919" x="334.8" y="217.0" width="13.4" height="32.0"/><rect fill="#191919" x="347.2" y="217.0" width="435.0" height="32.0"/><rect fill="#191919" x="781.2" y="217.0" width="13.4" height="32.0"/><rect fill="#191919" x="793.6" y="217.0" width="199.4" height="32.0"/><rect fill="#191919" x="992.0" y="217.0" width="13.4" height="32.0"/><rect fill="#191919" x="1004.4" y="217.0" width="162.20000000000002" height="32.0"/><rect fill="#191919" x="1165.6000000000001" y="217.0" width="1.0" height="32.0"/><rect fill="#191919" x="0.0" y="248.0" width="149.8" height="32.0"/><rect fill="#191919" x="148.8" y="248.0" width="856.6" height="32.0"/><rect fill="#191919" x="1004.4" y="248.0" width="162.20000000000002" height="32.0"/><rect fill="#191919" x="1165.6000000000001" y="248.0" width="1.0" height="32.0"/><rect fill="#191919" x="0.0" y="279.0" width="149.8" height="32.0"/><rect fill="#191919" x="148.8" y="279.0" width="13.4" height="32.0"/><rect fill="#191919" x="161.20000000000002" y="279.0" width="174.6" height="32.0"/><rect fill="#191919" x="334.8" y="279.0" width="13.4" height="32.0"/><rect fill="#191919" x="347.2" y="279.0" width="435.0" height="32.0"/><rect fill="#191919" x="781.2" y="279.0" width="13.4" height="32.0"/><rect fill="#191919" x="793.6" y="279.0" width="199.4" height="32.0"/><rect fill="#191919" x="992.0" y="279.0" width="13.4" height="32.0"/><rect fill="#191919" x="1004.4" y="279.0" width="162.20000000000002" height="32.0"/><rect fill="#191919" x="1165.6000000000001" y="279.0" width="1.0" height="32.0"/><rect fill="#191919" x="0.0" y="310.0" width="149.8" height="32.0"/><rect fill="#191919" x="148.8" y="310.0" width="856.6" height="32.0"/><rect fill="#191919" x="1004.4" y="310.0" width="162.20000000000002" height="32.0"/><rect fill="#191919" x="1165.6000000000001" y="310.0" width="1.0" height="32.0"/><rect fill="#191919" x="0.0" y="341.0" width="149.8" height="32.0"/><rect fill="#191919" x="148.8" y="341.0" width="13.4" height="32.0"/><rect fill="#3a3d43" x="161.20000000000002" y="341.0" width="174.6" height="32.0"/><rect fill="#191919" x="334.8" y="341.0" width="13.4" height="32.0"/><rect fill="#3a3d43" x="347.2" y="341.0" width="435.0" height="32.0"/><rect fill="#191919" x="781.2" y="341.0" width="13.4" height="32.0"/><rect fill="#3a3d43" x="793.6" y="341.0" width="199.4" height="32.0"/><rect fill="#191919" x="992.0" y="341.0" width="13.4" height="32.0"/><rect fill="#191919" x="1004.4" y="341.0" width="162.20000000000002" height="32.0"/><rect fill="#191919" x="1165.6000000000001" y="341.0" width="1.0" height="32.0"/><rect fill="#191919" x="0.0" y="372.0" width="149.8" height="32.0"/><rect fill="#191919" x="148.8" y="372.0" width="856.6" height="32.0"/><rect fill="#191919" x="1004.4" y="372.0" width="162.20000000000002" height="32.0"/><rect fill="#191919" x="1165.6000000000001" y="372.0" width="1.0" height="32.0"/><rect fill="#191919" x="0.0" y="403.0" width="149.8" height="32.0"/><rect fill="#191919" x="148.8" y="403.0" width="13.4" height="32.0"/><rect fill="#191919" x="161.20000000000002" y="403.0" width="174.6" height="32.0"/><rect fill="#191919" x="334.8" y="403.0" width="13.4" height="32.0"/><rect fill="#191919" x="347.2" y="403.0" width="435.0" height="32.0"/><rect fill="#191919" x="781.2" y="403.0" width="13.4" height="32.0"/><rect fill="#191919" x="793.6" y="403.0" width="199.4" height="32.0"/><rect fill="#191919" x="992.0" y="403.0" width="13.4" height="32.0"/><rect fill="#191919" x="1004.4" y="403.0" width="162.20000000000002" height="32.0"/><rect fill="#191919" x="1165.6000000000001" y="403.0" width="1.0" height="32.0"/><rect fill="#191919" x="0.0" y="434.0" width="149.8" height="32.0"/><rect fill="#191919" x="148.8" y="434.0" width="856.6" height="32.0"/><rect fill="#191919" x="1004.4" y="434.0" width="162.20000000000002" height="32.0"/><rect fill="#191919" x="1165.6000000000001" y="434.0" width="1.0" height="32.0"/><rect fill="#191919" x="0.0" y="465.0" width="149.8" height="32.0"/><rect fill="#191919" x="148.8" y="465.0" width="856.6" height="32.0"/><rect fill="#191919" x="1004.4" y="465.0" width="162.20000000000002" height="32.0"/><rect fill="#191919" x="1165.6000000000001" y="465.0" width="1.0" height="32.0"/>
    <text alignment-baseline="baseline" class="terminal-1573804848-matrix"><tspan class="terminal-1573804848-r1" x="0.0" y="20.0" textLength="1165.6000000000001">                                                                                              </tspan><tspan class="terminal-1573804848-r1" x="1165.6000000000001" y="20.0" textLength="12.4">
</tspan><tspan class="terminal-1573804848-r2" x="0.0" y="51.0" textLength="310.0">──────────────────────── </tspan><tspan class="terminal-1573804848-r3" x="310.0" y="51.0" textLength="124.0">show_lines</tspan><tspan class="terminal-1573804848-r1" x="434.0" y="51.0" textLength="12.4">=</tspan><tspan class="terminal-1573804848-r4" x="446.40000000000003" y="51.0" textLength="49.6">True</tspan><tspan class="terminal-1573804848-r1" x="496.0" y="51.0" textLength="24.8">, </tspan><tspan class="terminal-1573804848-r3" x="520.8000000000001" y="51.0" textLength="124.0">row_styles</tspan><tspan class="terminal-1573804848-r1" x="644.8000000000001" y="51.0" textLength="12.4">=</tspan><tspan class="terminal-1573804848-r5" x="657.2" y="51.0" textLength="12.4">[</tspan><tspan class="terminal-1573804848-r6" x="669.6" y="51.0" textLength="62.0">&#x27;dim&#x27;</tspan><tspan class="terminal-1573804848-r1" x="731.6" y="51.0" textLength="24.8">, </tspan><tspan class="terminal-1573804848-r6" x="756.4" y="51.0" textLength="74.4">&#x27;none&#x27;</tspan><tspan class="terminal-1573804848-r5" x="830.8000000000001" y="51.0" textLength="12.4">]</tspan><tspan class="terminal-1573804848-r2" x="843.2" y="51.0" textLength="322.40000000000003"> ─────────────────────────</tspan><tspan class="terminal-1573804848-r1" x="1165.6000000000001" y="51.0" textLength="12.4">
</tspan><tspan class="terminal-1573804848-r1" x="0.0" y="82.0" textLength="1165.6000000000001">                                                                                              </tspan><tspan class="terminal-1573804848-r1" x="1165.6000000000001" y="82.0" textLength="12.4">
</tspan><tspan class="terminal-1573804848-r1" x="0.0" y="113.0" textLength="148.8">            </tspan><tspan class="terminal-1573804848-r7" x="148.8" y="113.0" textLength="855.6">                          Star Wars Movies                           </tspan><tspan class="terminal-1573804848-r1" x="1004.4" y="113.0" textLength="161.20000000000002">             </tspan><tspan class="terminal-1573804848-r1" x="1165.6000000000001" y="113.0" textLength="12.4">
</tspan><tspan class="terminal-1573804848-r1" x="0.0" y="144.0" textLength="148.8">            </tspan><tspan class="terminal-1573804848-r1" x="148.8" y="144.0" textLength="855.6">┏━━━━━━━━━━━━━━┳━━━━━━━━━━━━━━━━━━━━━━━━━━━━━━━━━━━┳━━━━━━━━━━━━━━━━┓</tspan><tspan class="terminal-1573804848-r1" x="1004.4" y="144.0" textLength="161.20000000000002">             </tspan><tspan class="terminal-1573804848-r1" x="1165.6000000000001" y="144.0" textLength="12.4">
</tspan><tspan class="terminal-1573804848-r1" x="0.0" y="175.0" textLength="148.8">            </tspan><tspan class="terminal-1573804848-r1" x="148.8" y="175.0" textLength="12.4">┃</tspan><tspan class="terminal-1573804848-r8" x="161.20000000000002" y="175.0" textLength="173.6"> Released     </tspan><tspan class="terminal-1573804848-r1" x="334.8" y="175.0" textLength="12.4">┃</tspan><tspan class="terminal-1573804848-r5" x="347.2" y="175.0" textLength="434.0"> Title                             </tspan><tspan class="terminal-1573804848-r1" x="781.2" y="175.0" textLength="12.4">┃</tspan><tspan class="terminal-1573804848-r5" x="793.6" y="175.0" textLength="198.4">     Box Office </tspan><tspan class="terminal-1573804848-r1" x="992.0" y="175.0" textLength="12.4">┃</tspan><tspan class="terminal-1573804848-r1" x="1004.4" y="175.0" textLength="161.20000000000002">             </tspan><tspan class="terminal-1573804848-r1" x="1165.6000000000001" y="175.0" textLength="12.4">
</tspan><tspan class="terminal-1573804848-r1" x="0.0" y="206.0" textLength="148.8">            </tspan><tspan class="terminal-1573804848-r1" x="148.8" y="206.0" textLength="855.6">┡━━━━━━━━━━━━━━╇━━━━━━━━━━━━━━━━━━━━━━━━━━━━━━━━━━━╇━━━━━━━━━━━━━━━━┩</tspan><tspan class="terminal-1573804848-r1" x="1004.4" y="206.0" textLength="161.20000000000002">             </tspan><tspan class="terminal-1573804848-r1" x="1165.6000000000001" y="206.0" textLength="12.4">
</tspan><tspan class="terminal-1573804848-r1" x="0.0" y="237.0" textLength="148.8">            </tspan><tspan class="terminal-1573804848-r1" x="148.8" y="237.0" textLength="12.4">│</tspan><tspan class="terminal-1573804848-r9" x="161.20000000000002" y="237.0" textLength="173.6"> Dec 20, 2019 </tspan><tspan class="terminal-1573804848-r1" x="334.8" y="237.0" textLength="12.4">│</tspan><tspan class="terminal-1573804848-r10" x="347.2" y="237.0" textLength="434.0"> Star Wars: The Rise of Skywalker  </tspan><tspan class="terminal-1573804848-r1" x="781.2" y="237.0" textLength="12.4">│</tspan><tspan class="terminal-1573804848-r11" x="793.6" y="237.0" textLength="198.4">   $952,110,690 </tspan><tspan class="terminal-1573804848-r1" x="992.0" y="237.0" textLength="12.4">│</tspan><tspan class="terminal-1573804848-r1" x="1004.4" y="237.0" textLength="161.20000000000002">             </tspan><tspan class="terminal-1573804848-r1" x="1165.6000000000001" y="237.0" textLength="12.4">
</tspan><tspan class="terminal-1573804848-r1" x="0.0" y="268.0" textLength="148.8">            </tspan><tspan class="terminal-1573804848-r1" x="148.8" y="268.0" textLength="855.6">├──────────────┼───────────────────────────────────┼────────────────┤</tspan><tspan class="terminal-1573804848-r1" x="1004.4" y="268.0" textLength="161.20000000000002">             </tspan><tspan class="terminal-1573804848-r1" x="1165.6000000000001" y="268.0" textLength="12.4">
</tspan><tspan class="terminal-1573804848-r1" x="0.0" y="299.0" textLength="148.8">            </tspan><tspan class="terminal-1573804848-r1" x="148.8" y="299.0" textLength="12.4">│</tspan><tspan class="terminal-1573804848-r12" x="161.20000000000002" y="299.0" textLength="173.6"> May 25, 2018 </tspan><tspan class="terminal-1573804848-r1" x="334.8" y="299.0" textLength="12.4">│</tspan><tspan class="terminal-1573804848-r13" x="347.2" y="299.0" textLength="434.0"> Solo: A Star Wars Story           </tspan><tspan class="terminal-1573804848-r1" x="781.2" y="299.0" textLength="12.4">│</tspan><tspan class="terminal-1573804848-r6" x="793.6" y="299.0" textLength="198.4">   $393,151,347 </tspan><tspan class="terminal-1573804848-r1" x="992.0" y="299.0" textLength="12.4">│</tspan><tspan class="terminal-1573804848-r1" x="1004.4" y="299.0" textLength="161.20000000000002">             </tspan><tspan class="terminal-1573804848-r1" x="1165.6000000000001" y="299.0" textLength="12.4">
</tspan><tspan class="terminal-1573804848-r1" x="0.0" y="330.0" textLength="148.8">            </tspan><tspan class="terminal-1573804848-r1" x="148.8" y="330.0" textLength="855.6">├──────────────┼───────────────────────────────────┼────────────────┤</tspan><tspan class="terminal-1573804848-r1" x="1004.4" y="330.0" textLength="161.20000000000002">             </tspan><tspan class="terminal-1573804848-r1" x="1165.6000000000001" y="330.0" textLength="12.4">
</tspan><tspan class="terminal-1573804848-r1" x="0.0" y="361.0" textLength="148.8">            </tspan><tspan class="terminal-1573804848-r1" x="148.8" y="361.0" textLength="12.4">│</tspan><tspan class="terminal-1573804848-r9" x="161.20000000000002" y="361.0" textLength="173.6"> Dec 15, 2017 </tspan><tspan class="terminal-1573804848-r1" x="334.8" y="361.0" textLength="12.4">│</tspan><tspan class="terminal-1573804848-r10" x="347.2" y="361.0" textLength="434.0"> Star Wars Ep. V111: The Last Jedi </tspan><tspan class="terminal-1573804848-r1" x="781.2" y="361.0" textLength="12.4">│</tspan><tspan class="terminal-1573804848-r11" x="793.6" y="361.0" textLength="198.4"> $1,332,539,889 </tspan><tspan class="terminal-1573804848-r1" x="992.0" y="361.0" textLength="12.4">│</tspan><tspan class="terminal-1573804848-r1" x="1004.4" y="361.0" textLength="161.20000000000002">             </tspan><tspan class="terminal-1573804848-r1" x="1165.6000000000001" y="361.0" textLength="12.4">
</tspan><tspan class="terminal-1573804848-r1" x="0.0" y="392.0" textLength="148.8">            </tspan><tspan class="terminal-1573804848-r1" x="148.8" y="392.0" textLength="855.6">├──────────────┼───────────────────────────────────┼────────────────┤</tspan><tspan class="terminal-1573804848-r1" x="1004.4" y="392.0" textLength="161.20000000000002">             </tspan><tspan class="terminal-1573804848-r1" x="1165.6000000000001" y="392.0" textLength="12.4">
</tspan><tspan class="terminal-1573804848-r1" x="0.0" y="423.0" textLength="148.8">            </tspan><tspan class="terminal-1573804848-r1" x="148.8" y="423.0" textLength="12.4">│</tspan><tspan class="terminal-1573804848-r12" x="161.20000000000002" y="423.0" textLength="173.6"> Dec 16, 2016 </tspan><tspan class="terminal-1573804848-r1" x="334.8" y="423.0" textLength="12.4">│</tspan><tspan class="terminal-1573804848-r13" x="347.2" y="423.0" textLength="434.0"> Rogue One: A Star Wars Story      </tspan><tspan class="terminal-1573804848-r1" x="781.2" y="423.0" textLength="12.4">│</tspan><tspan class="terminal-1573804848-r6" x="793.6" y="423.0" textLength="198.4"> $1,332,439,889 </tspan><tspan class="terminal-1573804848-r1" x="992.0" y="423.0" textLength="12.4">│</tspan><tspan class="terminal-1573804848-r1" x="1004.4" y="423.0" textLength="161.20000000000002">             </tspan><tspan class="terminal-1573804848-r1" x="1165.6000000000001" y="423.0" textLength="12.4">
</tspan><tspan class="terminal-1573804848-r1" x="0.0" y="454.0" textLength="148.8">            </tspan><tspan class="terminal-1573804848-r1" x="148.8" y="454.0" textLength="855.6">└──────────────┴───────────────────────────────────┴────────────────┘</tspan><tspan class="terminal-1573804848-r1" x="1004.4" y="454.0" textLength="161.20000000000002">             </tspan><tspan class="terminal-1573804848-r1" x="1165.6000000000001" y="454.0" textLength="12.4">
</tspan><tspan class="terminal-1573804848-r1" x="0.0" y="485.0" textLength="148.8">            </tspan><tspan class="terminal-1573804848-r14" x="148.8" y="485.0" textLength="855.6">                                                   Rich example table</tspan><tspan class="terminal-1573804848-r1" x="1004.4" y="485.0" textLength="161.20000000000002">             </tspan><tspan class="terminal-1573804848-r1" x="1165.6000000000001" y="485.0" textLength="12.4">
</tspan></text>
    </g>
</svg>
